<svg width="18" height="22" viewBox="0 0 18 22" fill="none" xmlns="http://www.w3.org/2000/svg">
<path d="M9 21.5L2.673 14.0382C2.58508 13.9262 2.49808 13.8135 2.412 13.7C1.33123 12.2763 0.747377 10.5374 0.749997 8.75C0.749997 6.56196 1.61919 4.46354 3.16637 2.91637C4.71354 1.36919 6.81196 0.5 9 0.5C11.188 0.5 13.2865 1.36919 14.8336 2.91637C16.3808 4.46354 17.25 6.56196 17.25 8.75C17.2526 10.5366 16.669 12.2747 15.5887 13.6978L15.588 13.7C15.588 13.7 15.363 13.9955 15.3292 14.0353L9 21.5ZM3.609 12.7963C3.6105 12.7963 3.7845 13.0272 3.82425 13.0767L9 19.181L14.1825 13.0685C14.2155 13.0272 14.391 12.7948 14.3917 12.794C15.2746 11.6308 15.7517 10.2103 15.75 8.75C15.75 6.95979 15.0388 5.2429 13.773 3.97703C12.5071 2.71116 10.7902 2 9 2C7.20979 2 5.4929 2.71116 4.22703 3.97703C2.96116 5.2429 2.25 6.95979 2.25 8.75C2.24842 10.2112 2.72608 11.6326 3.60975 12.7963H3.609Z" fill="#474A57"/>
</svg>
