<svg width="162" height="162" viewBox="0 0 162 162" fill="none" xmlns="http://www.w3.org/2000/svg">
<path d="M18.2148 62.5249C18.5724 61.4523 18.6461 60.4895 18.4358 59.6365C18.2221 58.7768 17.7837 58.0432 17.1204 57.4359C16.4572 56.8285 15.6334 56.3653 14.6492 56.0464C14.5934 56.0283 14.5012 56.0012 14.3727 55.9652C14.2391 55.9275 14.1122 55.8948 13.9922 55.8671L12.7623 59.5555L13.7212 59.8662L14.5614 57.3466C15.7097 57.7804 16.5285 58.3933 17.0178 59.1853C17.507 59.9774 17.5534 60.9595 17.1569 62.1316C16.8667 62.985 16.4301 63.6368 15.8471 64.087C15.2658 64.5321 14.5804 64.7837 13.7909 64.8418C13.0013 64.8999 12.1507 64.7785 11.2392 64.4775C10.3293 64.1714 9.57407 63.7641 8.97347 63.2555C8.37286 62.7469 7.9717 62.146 7.76998 61.4527C7.56826 60.7595 7.61249 59.9862 7.90267 59.1327C8.17091 58.3283 8.59569 57.7203 9.17702 57.3088C9.76003 56.8923 10.4269 56.6711 11.1776 56.6453L11.2781 55.4333C10.2636 55.4241 9.36266 55.6984 8.57516 56.2561C7.78428 56.8071 7.19483 57.6644 6.80682 58.8281C6.45929 59.8703 6.39745 60.8398 6.6213 61.7364C6.84515 62.6331 7.31661 63.4194 8.0357 64.0953C8.75648 64.7661 9.69272 65.2882 10.8444 65.6614C12.0012 66.0362 13.0749 66.1627 14.0657 66.0409C15.053 65.9124 15.9066 65.5527 16.6264 64.9618C17.3412 64.3693 17.8706 63.557 18.2148 62.5249Z" fill="#011230"/>
<path d="M20.3164 55.4576L20.918 54.3917L18.9421 52.2129L21.4588 47.7541L24.3825 48.254L24.9842 47.188L12.9336 45.103L12.1668 46.4615L20.3164 55.4576ZM18.1629 51.3475L13.7086 46.4314L20.3021 47.5576L18.1629 51.3475Z" fill="#011230"/>
<path d="M29.5394 41.4186C30.0524 40.7978 30.4053 40.1613 30.5983 39.5092C30.7947 38.853 30.8146 38.2261 30.6581 37.6285C30.4975 37.0276 30.1386 36.5034 29.5813 36.0559C29.1572 35.7152 28.7412 35.5112 28.3335 35.4437C27.9251 35.3687 27.5388 35.3799 27.1746 35.4773C26.8097 35.5673 26.4813 35.6969 26.1894 35.866C25.8933 36.0317 25.6456 36.185 25.4462 36.3258L23.4914 37.6491C23.2346 37.8259 22.9523 37.9959 22.6445 38.1591C22.3401 38.3182 22.0268 38.4086 21.7045 38.4302C21.3857 38.4477 21.0745 38.3346 20.7709 38.0908C20.4715 37.8503 20.2801 37.5462 20.1967 37.1783C20.1092 36.807 20.1279 36.4117 20.2531 35.9924C20.374 35.5697 20.5997 35.1627 20.93 34.7714C21.4471 34.1539 22.0638 33.7634 22.78 33.5999C23.4955 33.429 24.1817 33.532 24.8386 33.9091L25.4487 32.8192C24.5231 32.3152 23.5794 32.1763 22.6176 32.4025C21.6517 32.6254 20.7998 33.1792 20.0618 34.0639C19.5752 34.6444 19.2453 35.2446 19.0719 35.8646C18.8944 36.4813 18.882 37.0698 19.0347 37.6301C19.1832 38.1871 19.5111 38.6693 20.0185 39.0767C20.6214 39.5609 21.2391 39.7595 21.8715 39.6723C22.5031 39.5776 23.1243 39.3241 23.7349 38.9117L26.2748 37.2067C26.507 37.0512 26.7638 36.9121 27.0452 36.7892C27.3266 36.6664 27.6207 36.6119 27.9275 36.6257C28.2377 36.6354 28.5466 36.7639 28.8544 37.011C29.2078 37.2948 29.4319 37.639 29.5267 38.0433C29.6214 38.4477 29.5968 38.8794 29.4528 39.3383C29.3081 39.7897 29.0539 40.2354 28.6904 40.6753C28.1435 41.3372 27.5087 41.7747 26.7861 41.9878C26.0593 42.1976 25.3437 42.1427 24.6392 41.8232L24.0308 42.8734C24.648 43.1981 25.2825 43.3554 25.9342 43.3453C26.5859 43.3352 27.2216 43.1686 27.8414 42.8455C28.4604 42.5151 29.0264 42.0394 29.5394 41.4186Z" fill="#011230"/>
<path d="M35.9935 34.5264C36.5233 34.0548 36.8871 33.5203 37.0848 32.923C37.283 32.3182 37.3104 31.7047 37.1671 31.0825C37.0243 30.4529 36.7042 29.8667 36.2071 29.324C35.7207 28.7931 35.1825 28.4227 34.5923 28.2127C34.0022 28.0026 33.4072 27.9611 32.8075 28.088C32.2042 28.211 31.6434 28.5068 31.1252 28.9753L31.4689 24.3532L30.6962 23.5096L25.7249 27.9355L26.4868 28.7673L30.3408 25.3361L29.8527 30.6652L30.9271 30.9617C31.0096 30.7597 31.1167 30.5608 31.2484 30.365C31.3801 30.1693 31.5236 30.0023 31.6789 29.8639C32.2366 29.3675 32.8468 29.1454 33.5097 29.1979C34.1729 29.243 34.7693 29.5545 35.2989 30.1326C35.8212 30.7028 36.0774 31.3101 36.0674 31.9545C36.0614 32.5953 35.777 33.1769 35.2142 33.6994C34.8111 34.0726 34.3452 34.2982 33.8165 34.3762C33.2877 34.4543 32.7589 34.3467 32.23 34.0536L31.6204 35.0461C32.3297 35.4571 33.0764 35.617 33.8606 35.5257C34.6452 35.4269 35.3562 35.0939 35.9935 34.5264Z" fill="#011230"/>
<path d="M44.383 28.0004C44.9856 27.6162 45.4392 27.1215 45.7438 26.5163C46.0529 25.9082 46.1964 25.2665 46.1744 24.5912C46.1568 23.913 45.9536 23.2774 45.5645 22.6843C45.1725 22.0867 44.6769 21.6374 44.0777 21.3363C43.4785 21.0353 42.8461 20.8977 42.1806 20.9235C41.5122 20.9448 40.8766 21.1476 40.274 21.5317C39.8018 21.8328 39.4261 22.2177 39.1469 22.6866C38.8722 23.1526 38.705 23.6513 38.6453 24.1826L37.6757 22.7043C37.4036 22.2895 37.2518 21.8393 37.2201 21.3535C37.1885 20.8677 37.2801 20.4046 37.495 19.964C37.707 19.519 38.0401 19.1517 38.4943 18.8622C38.8945 18.607 39.3299 18.4686 39.8004 18.447C40.2725 18.418 40.7158 18.4959 41.1304 18.6806L41.4846 17.5726C40.8996 17.3321 40.2897 17.2434 39.655 17.3064C39.0248 17.3666 38.4332 17.5731 37.88 17.9257C37.2414 18.3328 36.7645 18.8455 36.4494 19.4637C36.1313 20.0776 35.9929 20.7319 36.034 21.4266C36.0722 22.1169 36.3034 22.7853 36.7275 23.432L38.917 26.77C39.3265 27.3943 39.8427 27.8653 40.4656 28.1829C41.093 28.4976 41.7505 28.6445 42.4383 28.6234C43.1231 28.598 43.7714 28.3903 44.383 28.0004ZM43.7555 27.0438C43.3328 27.3133 42.881 27.4558 42.4002 27.4714C41.9238 27.4842 41.471 27.387 41.0418 27.18C40.6142 26.9656 40.2644 26.651 39.9924 26.2363C39.7174 25.8171 39.5685 25.3713 39.5456 24.8989C39.5273 24.4236 39.624 23.973 39.8357 23.5471C40.0474 23.1213 40.3647 22.7736 40.7874 22.5041C41.2102 22.2346 41.662 22.0921 42.1428 22.0765C42.6237 22.0609 43.0779 22.1602 43.5055 22.3746C43.9376 22.5861 44.2912 22.9015 44.5661 23.3207C44.8411 23.7399 44.9877 24.1871 45.0061 24.6624C45.0215 25.1332 44.9234 25.5815 44.7117 26.0074C44.497 26.4289 44.1783 26.7743 43.7555 27.0438Z" fill="#011230"/>
<path d="M53.6283 22.946C54.2859 22.6661 54.8085 22.264 55.196 21.7397C55.5835 21.2154 55.8159 20.6295 55.8934 19.9822C55.9687 19.3299 55.864 18.679 55.5794 18.0292L53.782 13.9256C53.4953 13.271 53.0864 12.7495 52.5553 12.3612C52.0243 11.9728 51.4323 11.7379 50.7795 11.6565C50.1267 11.575 49.4715 11.6742 48.8139 11.9541C48.1612 12.2319 47.6387 12.6341 47.2463 13.1605C46.8588 13.6848 46.6263 14.2706 46.5489 14.9179C46.4714 15.5653 46.5761 16.2163 46.8628 16.8709L48.6602 20.9745C48.9448 21.6243 49.3537 22.1457 49.8869 22.539C50.418 22.9273 51.0099 23.1622 51.6627 23.2437C52.3205 23.323 52.9757 23.2238 53.6283 22.946ZM53.1726 21.9054C52.7407 22.0892 52.2997 22.1524 51.8495 22.0948C51.3971 22.0323 50.9848 21.8687 50.6127 21.604C50.2455 21.3372 49.9677 20.9889 49.7794 20.559L47.9371 16.3527C47.7467 15.918 47.6789 15.4773 47.7337 15.0309C47.7934 14.5824 47.9563 14.1768 48.2226 13.8143C48.4866 13.4468 48.8346 13.1712 49.2664 12.9874C49.7032 12.8015 50.1453 12.7408 50.5928 12.8053C51.043 12.8629 51.4517 13.0251 51.8189 13.2919C52.1911 13.5566 52.4723 13.9064 52.6628 14.3412L54.5051 18.5474C54.6934 18.9773 54.7577 19.4165 54.698 19.865C54.6432 20.3115 54.4837 20.7184 54.2197 21.0859C53.9584 21.4463 53.6093 21.7195 53.1726 21.9054Z" fill="#011230"/>
<path d="M64.2047 18.8473L71.3 17.6237L71.1029 16.5131L65.1665 17.5368L64.4411 13.4486L69.4314 12.5881L69.2344 11.4774L64.244 12.338L63.548 8.41526L69.4843 7.39157L69.2873 6.28092L62.192 7.50446L64.2047 18.8473Z" fill="#011230"/>
<path d="M73.9319 17.0754L75.3639 17.0644L78.5823 12.1995L81.8837 17.0143L83.3077 17.0033L79.2786 11.2021L83.1223 5.48441L81.6904 5.49542L78.567 10.2236L75.3706 5.54401L73.9466 5.55495L77.8786 11.2129L73.9319 17.0754Z" fill="#011230"/>
<path d="M86.0415 17.0514L87.2026 17.238L87.9169 12.9207L91.1474 13.4402C91.2527 13.4571 91.3773 13.4718 91.5212 13.4841C91.6651 13.4964 91.8099 13.5035 91.9556 13.5053C92.8629 13.5108 93.6092 13.231 94.1946 12.6662C94.7852 12.1021 95.1537 11.3781 95.3 10.4941C95.4471 9.60487 95.3342 8.80076 94.9612 8.08177C94.5882 7.36278 93.9681 6.86333 93.1009 6.58343C92.963 6.53426 92.8235 6.49562 92.6822 6.46749C92.547 6.43496 92.4241 6.4098 92.3135 6.39202L87.922 5.68587L86.0415 17.0514ZM88.0997 11.8158L88.8989 6.98544L92.0978 7.49981C92.1926 7.51505 92.3023 7.53809 92.4269 7.56893C92.5577 7.59536 92.6789 7.63105 92.7903 7.67598C93.3539 7.89625 93.7348 8.25729 93.9329 8.75909C94.1371 9.25648 94.1952 9.7709 94.1073 10.3023C94.0202 10.8285 93.7993 11.2981 93.4445 11.711C93.0949 12.1247 92.6179 12.3451 92.0133 12.3721C91.8931 12.3798 91.7664 12.3783 91.633 12.3677C91.5049 12.3579 91.3934 12.3454 91.2986 12.3301L88.0997 11.8158Z" fill="#011230"/>
<path d="M97.1568 18.9273L103.972 21.2487L104.345 20.1841L98.6431 18.2419L100.016 14.3236L104.81 15.9563L105.183 14.8918L100.389 13.2591L101.707 9.49931L107.409 11.4415L107.782 10.377L100.967 8.05564L97.1568 18.9273Z" fill="#011230"/>
<path d="M107.235 22.3377L108.266 22.9033L110.417 19.0925L113.643 20.8624L113.351 25.6928L114.536 26.3431L114.837 21.1887C115.531 21.2715 116.174 21.1408 116.767 20.7967C117.359 20.4525 117.84 19.953 118.21 19.2981C118.653 18.5132 118.821 17.7207 118.716 16.9206C118.61 16.1206 118.196 15.4434 117.474 14.8892C117.361 14.7967 117.242 14.7135 117.119 14.6396C117.002 14.5636 116.895 14.4987 116.797 14.4448L112.897 12.3055L107.235 22.3377ZM110.967 18.1171L113.374 13.8535L116.214 15.4118C116.299 15.4579 116.394 15.5164 116.501 15.5873C116.615 15.6561 116.718 15.7303 116.807 15.8099C117.263 16.2061 117.499 16.673 117.514 17.2104C117.536 17.7458 117.415 18.248 117.15 18.7171C116.888 19.1816 116.519 19.5479 116.043 19.816C115.572 20.0867 115.047 20.1331 114.467 19.9552C114.351 19.922 114.232 19.8779 114.11 19.8231C113.993 19.7708 113.892 19.7216 113.808 19.6754L110.967 18.1171Z" fill="#011230"/>
<path d="M117.448 28.2319L118.408 28.9103L125.18 19.5907L124.219 18.9123L117.448 28.2319Z" fill="#011230"/>
<path d="M121.315 30.8119L126.622 35.6771L127.396 34.8565L122.955 30.7859L125.804 27.7655L129.537 31.1874L130.311 30.3668L126.578 26.9449L129.312 24.0467L133.753 28.1173L134.527 27.2967L129.219 22.4315L121.315 30.8119Z" fill="#011230"/>
<path d="M129.263 38.0842L129.984 39.0239L137.56 33.3794L133.843 44.0588L134.563 44.9984L143.802 38.1161L143.081 37.1764L135.511 42.8161L139.222 32.1415L138.501 31.2019L129.263 38.0842Z" fill="#011230"/>
<path d="M138.465 51.9882C139.057 53.189 139.848 54.0222 140.839 54.4879C141.834 54.9514 142.921 55.0754 144.099 54.86L143.85 53.6489C142.924 53.8205 142.078 53.738 141.311 53.4014C140.55 53.0625 139.94 52.429 139.483 51.5009C139.084 50.6925 138.936 49.9268 139.037 49.2041C139.146 48.4838 139.463 47.8295 139.987 47.2412C140.514 46.6576 141.212 46.1609 142.08 45.751C142.951 45.3459 143.781 45.1194 144.572 45.0717C145.368 45.0217 146.083 45.1759 146.718 45.5343C147.355 45.8974 147.872 46.4833 148.271 47.2917C148.728 48.2198 148.854 49.0848 148.649 49.8868C148.448 50.6865 147.994 51.3922 147.284 52.0039L148.096 52.9455C148.996 52.1656 149.566 51.2479 149.807 50.1924C150.053 49.1345 149.88 48.0052 149.288 46.8045C148.781 45.7759 148.125 45.0171 147.319 44.5279C146.513 44.0388 145.614 43.8071 144.622 43.8329C143.63 43.8587 142.6 44.1273 141.532 44.6388C140.469 45.1479 139.618 45.7801 138.98 46.5353C138.346 47.2883 137.975 48.1282 137.867 49.0551C137.759 49.982 137.958 50.9597 138.465 51.9882Z" fill="#011230"/>
<path d="M142.128 59.1952L144.09 66.1228L145.178 65.8235L143.536 60.0274L147.539 58.9257L148.919 63.7982L150.007 63.4989L148.627 58.6264L152.468 57.5694L154.11 63.3655L155.197 63.0662L153.235 56.1386L142.128 59.1952Z" fill="#011230"/>
<path d="M143.785 99.4752C143.428 100.548 143.354 101.511 143.564 102.364C143.778 103.223 144.216 103.957 144.88 104.564C145.543 105.172 146.367 105.635 147.351 105.954C147.407 105.972 147.499 105.999 147.627 106.035C147.761 106.073 147.888 106.105 148.008 106.133L149.238 102.445L148.279 102.134L147.439 104.654C146.29 104.22 145.471 103.607 144.982 102.815C144.493 102.023 144.447 101.041 144.843 99.8685C145.133 99.0151 145.57 98.3633 146.153 97.9131C146.734 97.468 147.42 97.2164 148.209 97.1583C148.999 97.1002 149.849 97.2217 150.761 97.5227C151.671 97.8287 152.426 98.236 153.027 98.7446C153.627 99.2532 154.028 99.8541 154.23 100.547C154.432 101.241 154.388 102.014 154.097 102.867C153.829 103.672 153.404 104.28 152.823 104.691C152.24 105.108 151.573 105.329 150.822 105.355L150.722 106.567C151.736 106.576 152.637 106.302 153.425 105.744C154.216 105.193 154.805 104.336 155.193 103.172C155.541 102.13 155.603 101.16 155.379 100.264C155.155 99.367 154.683 98.5808 153.964 97.9049C153.244 97.234 152.307 96.712 151.156 96.3387C149.999 95.9639 148.925 95.8374 147.934 95.9592C146.947 96.0878 146.093 96.4475 145.374 97.0383C144.659 97.6308 144.129 98.4431 143.785 99.4752Z" fill="#011230"/>
<path d="M141.684 106.542L141.082 107.608L143.058 109.787L140.541 114.246L137.618 113.746L137.016 114.812L149.067 116.897L149.833 115.538L141.684 106.542ZM143.837 110.652L148.292 115.568L141.698 114.442L143.837 110.652Z" fill="#011230"/>
<path d="M132.461 120.581C131.948 121.202 131.595 121.838 131.402 122.491C131.205 123.147 131.185 123.774 131.342 124.371C131.503 124.972 131.861 125.496 132.419 125.944C132.843 126.285 133.259 126.489 133.666 126.556C134.075 126.631 134.461 126.62 134.825 126.522C135.19 126.432 135.519 126.303 135.811 126.134C136.107 125.968 136.354 125.815 136.554 125.674L138.509 124.351C138.765 124.174 139.048 124.004 139.355 123.841C139.66 123.682 139.973 123.591 140.295 123.57C140.614 123.552 140.926 123.665 141.229 123.909C141.529 124.149 141.72 124.454 141.803 124.821C141.891 125.193 141.872 125.588 141.747 126.007C141.626 126.43 141.4 126.837 141.07 127.228C140.553 127.846 139.936 128.236 139.22 128.4C138.505 128.571 137.818 128.468 137.161 128.091L136.551 129.181C137.477 129.685 138.421 129.823 139.382 129.597C140.348 129.374 141.2 128.821 141.938 127.936C142.425 127.355 142.755 126.755 142.928 126.135C143.106 125.518 143.118 124.93 142.965 124.37C142.817 123.813 142.489 123.33 141.982 122.923C141.379 122.439 140.761 122.24 140.128 122.327C139.497 122.422 138.876 122.676 138.265 123.088L135.725 124.793C135.493 124.949 135.236 125.088 134.955 125.211C134.673 125.333 134.379 125.388 134.072 125.374C133.762 125.364 133.453 125.236 133.146 124.989C132.792 124.705 132.568 124.361 132.473 123.956C132.379 123.552 132.403 123.12 132.547 122.661C132.692 122.21 132.946 121.764 133.31 121.324C133.857 120.663 134.491 120.225 135.214 120.012C135.941 119.802 136.656 119.857 137.361 120.177L137.969 119.126C137.352 118.802 136.718 118.644 136.066 118.654C135.414 118.665 134.778 118.831 134.159 119.154C133.54 119.485 132.974 119.96 132.461 120.581Z" fill="#011230"/>
<path d="M126.006 127.473C125.477 127.945 125.113 128.48 124.915 129.077C124.717 129.682 124.69 130.295 124.833 130.917C124.976 131.547 125.296 132.133 125.793 132.676C126.279 133.207 126.818 133.577 127.408 133.787C127.998 133.997 128.593 134.039 129.192 133.912C129.796 133.789 130.357 133.493 130.875 133.025L130.531 137.647L131.304 138.49L136.275 134.064L135.513 133.233L131.659 136.664L132.147 131.335L131.073 131.038C130.99 131.24 130.883 131.439 130.752 131.635C130.62 131.831 130.476 131.998 130.321 132.136C129.763 132.632 129.153 132.854 128.49 132.802C127.827 132.757 127.231 132.445 126.701 131.867C126.179 131.297 125.923 130.69 125.933 130.045C125.939 129.405 126.223 128.823 126.786 128.3C127.189 127.927 127.655 127.702 128.184 127.624C128.712 127.546 129.241 127.653 129.77 127.946L130.38 126.954C129.67 126.543 128.924 126.383 128.139 126.474C127.355 126.573 126.644 126.906 126.006 127.473Z" fill="#011230"/>
<path d="M117.617 134C117.014 134.384 116.561 134.878 116.256 135.484C115.947 136.092 115.804 136.733 115.826 137.409C115.843 138.087 116.046 138.723 116.435 139.316C116.827 139.913 117.323 140.363 117.922 140.664C118.522 140.965 119.154 141.102 119.819 141.077C120.488 141.055 121.123 140.852 121.726 140.468C122.198 140.167 122.574 139.782 122.853 139.313C123.128 138.847 123.295 138.349 123.355 137.817L124.324 139.296C124.596 139.71 124.748 140.161 124.78 140.647C124.811 141.132 124.72 141.595 124.505 142.036C124.293 142.481 123.96 142.848 123.506 143.138C123.105 143.393 122.67 143.531 122.2 143.553C121.727 143.582 121.284 143.504 120.87 143.319L120.515 144.427C121.1 144.668 121.71 144.757 122.345 144.694C122.975 144.633 123.567 144.427 124.12 144.074C124.759 143.667 125.235 143.155 125.551 142.536C125.869 141.922 126.007 141.268 125.966 140.573C125.928 139.883 125.697 139.215 125.272 138.568L123.083 135.23C122.673 134.606 122.157 134.135 121.534 133.817C120.907 133.502 120.249 133.356 119.562 133.377C118.877 133.402 118.229 133.61 117.617 134ZM118.244 134.956C118.667 134.687 119.119 134.544 119.6 134.529C120.076 134.516 120.529 134.613 120.958 134.82C121.386 135.034 121.736 135.349 122.008 135.764C122.283 136.183 122.432 136.629 122.454 137.101C122.473 137.576 122.376 138.027 122.164 138.453C121.953 138.879 121.635 139.226 121.213 139.496C120.79 139.765 120.338 139.908 119.857 139.924C119.376 139.939 118.922 139.84 118.494 139.625C118.062 139.414 117.709 139.099 117.434 138.679C117.159 138.26 117.012 137.813 116.994 137.338C116.978 136.867 117.077 136.418 117.288 135.993C117.503 135.571 117.822 135.226 118.244 134.956Z" fill="#011230"/>
<path d="M108.372 139.054C107.714 139.334 107.192 139.736 106.804 140.26C106.417 140.785 106.184 141.37 106.107 142.018C106.031 142.67 106.136 143.321 106.421 143.971L108.218 148.074C108.505 148.729 108.914 149.25 109.445 149.639C109.976 150.027 110.568 150.262 111.221 150.343C111.873 150.425 112.529 150.326 113.186 150.046C113.839 149.768 114.361 149.366 114.754 148.839C115.141 148.315 115.374 147.729 115.451 147.082C115.529 146.435 115.424 145.784 115.137 145.129L113.34 141.025C113.055 140.376 112.646 139.854 112.113 139.461C111.582 139.073 110.99 138.838 110.337 138.756C109.68 138.677 109.024 138.776 108.372 139.054ZM108.827 140.094C109.259 139.911 109.7 139.848 110.151 139.905C110.603 139.968 111.015 140.131 111.387 140.396C111.755 140.663 112.032 141.011 112.221 141.441L114.063 145.647C114.253 146.082 114.321 146.523 114.266 146.969C114.207 147.418 114.044 147.823 113.777 148.186C113.513 148.553 113.165 148.829 112.734 149.013C112.297 149.198 111.855 149.259 111.407 149.195C110.957 149.137 110.548 148.975 110.181 148.708C109.809 148.443 109.528 148.094 109.337 147.659L107.495 143.453C107.307 143.023 107.242 142.583 107.302 142.135C107.357 141.688 107.516 141.281 107.78 140.914C108.042 140.554 108.391 140.28 108.827 140.094Z" fill="#011230"/>
<path d="M97.7953 143.153L90.7 144.376L90.8971 145.487L96.8335 144.463L97.5589 148.551L92.5686 149.412L92.7656 150.522L97.756 149.662L98.452 153.585L92.5157 154.608L92.7127 155.719L99.808 154.495L97.7953 143.153Z" fill="#011230"/>
<path d="M88.0681 144.924L86.6361 144.935L83.4177 149.8L80.1163 144.986L78.6923 144.997L82.7214 150.798L78.8777 156.515L80.3096 156.504L83.433 151.776L86.6294 156.456L88.0534 156.445L84.1214 150.787L88.0681 144.924Z" fill="#011230"/>
<path d="M75.9585 144.949L74.7974 144.762L74.0831 149.079L70.8526 148.56C70.7473 148.543 70.6227 148.528 70.4788 148.516C70.3349 148.504 70.1901 148.496 70.0444 148.495C69.1371 148.489 68.3908 148.769 67.8054 149.334C67.2148 149.898 66.8463 150.622 66.7 151.506C66.5529 152.395 66.6658 153.199 67.0388 153.918C67.4118 154.637 68.0319 155.137 68.8991 155.417C69.037 155.466 69.1765 155.504 69.3178 155.533C69.453 155.565 69.5759 155.59 69.6865 155.608L74.078 156.314L75.9585 144.949ZM73.9003 150.184L73.1011 155.015L69.9022 154.5C69.8074 154.485 69.6977 154.462 69.5731 154.431C69.4423 154.405 69.3211 154.369 69.2097 154.324C68.6461 154.104 68.2652 153.743 68.0671 153.241C67.8629 152.744 67.8048 152.229 67.8927 151.698C67.9798 151.171 68.2007 150.702 68.5555 150.289C68.9051 149.875 69.3821 149.655 69.9867 149.628C70.1069 149.62 70.2336 149.622 70.367 149.632C70.4951 149.642 70.6066 149.655 70.7014 149.67L73.9003 150.184Z" fill="#011230"/>
<path d="M64.8432 143.072L58.0277 140.751L57.6546 141.815L63.3569 143.758L61.9837 147.676L57.1901 146.043L56.817 147.108L61.6106 148.741L60.2929 152.5L54.5906 150.558L54.2175 151.623L61.033 153.944L64.8432 143.072Z" fill="#011230"/>
<path d="M54.7656 139.662L53.7345 139.097L51.5835 142.907L48.3571 141.137L48.6494 136.307L47.464 135.657L47.1634 140.811C46.4691 140.728 45.8259 140.859 45.2335 141.203C44.6412 141.547 44.1602 142.047 43.7906 142.702C43.3475 143.487 43.1789 144.279 43.2845 145.079C43.3902 145.879 43.8041 146.556 44.5262 147.111C44.6393 147.203 44.7577 147.286 44.8813 147.36C44.9977 147.436 45.1049 147.501 45.2031 147.555L49.1029 149.694L54.7656 139.662ZM51.0329 143.883L48.6263 148.146L45.7856 146.588C45.7015 146.542 45.6059 146.483 45.4989 146.413C45.3846 146.344 45.2826 146.27 45.1929 146.19C44.7367 145.794 44.5012 145.327 44.4861 144.789C44.4637 144.254 44.5849 143.752 44.8497 143.283C45.1119 142.818 45.4809 142.452 45.9568 142.184C46.428 141.913 46.9533 141.867 47.5327 142.045C47.6486 142.078 47.7677 142.122 47.8898 142.177C48.0073 142.229 48.1081 142.278 48.1923 142.324L51.0329 143.883Z" fill="#011230"/>
<path d="M44.5523 133.768L43.5917 133.09L36.82 142.409L37.7806 143.088L44.5523 133.768Z" fill="#011230"/>
<path d="M40.6854 131.188L35.3779 126.323L34.6039 127.143L39.0445 131.214L36.1956 134.234L32.4627 130.812L31.6887 131.633L35.4216 135.055L32.688 137.953L28.2474 133.883L27.4734 134.703L32.7809 139.568L40.6854 131.188Z" fill="#011230"/>
<path d="M32.7369 123.916L32.0166 122.976L24.44 128.621L28.157 117.941L27.4367 117.002L18.1985 123.884L18.9189 124.824L26.489 119.184L22.7785 129.858L23.4988 130.798L32.7369 123.916Z" fill="#011230"/>
<path d="M23.5345 110.012C22.9427 108.811 22.1516 107.978 21.161 107.512C20.1656 107.049 19.0789 106.925 17.9008 107.14L18.1499 108.351C19.0761 108.18 19.9224 108.262 20.6887 108.599C21.4503 108.937 22.0598 109.571 22.5172 110.499C22.9156 111.308 23.0641 112.073 22.9625 112.796C22.8537 113.516 22.537 114.171 22.0125 114.759C21.4855 115.342 20.788 115.839 19.9198 116.249C19.0493 116.654 18.2185 116.881 17.4275 116.928C16.6317 116.978 15.9165 116.824 15.2821 116.466C14.6453 116.103 14.1277 115.517 13.7292 114.708C13.2718 113.78 13.1458 112.915 13.351 112.113C13.5514 111.314 14.0063 110.608 14.7155 109.996L13.9037 109.054C13.0038 109.834 12.4335 110.752 12.1927 111.808C11.947 112.865 12.1201 113.995 12.7119 115.196C13.2188 116.224 13.8752 116.983 14.6811 117.472C15.487 117.961 16.386 118.193 17.3781 118.167C18.3702 118.141 19.4001 117.873 20.468 117.361C21.531 116.852 22.3817 116.22 23.0203 115.465C23.654 114.712 24.0248 113.872 24.1329 112.945C24.2409 112.018 24.0414 111.04 23.5345 110.012Z" fill="#011230"/>
<path d="M19.8717 102.805L17.91 95.8772L16.8224 96.1765L18.4637 101.973L14.4605 103.074L13.0808 98.2018L11.9932 98.5011L13.3729 103.374L9.53173 104.431L7.89048 98.6345L6.80291 98.9338L8.76457 105.861L19.8717 102.805Z" fill="#011230"/>
</svg>
